<?xml version="1.0" encoding="UTF-8"?>
<svg xmlns="http://www.w3.org/2000/svg" width="72" height="72" viewBox="0 0 72 72">
  <g>
    <rect width="72" height="72" rx="16" fill="#0077B5"/>
    <path d="M22.23 27.36h7.12v23.28h-7.12V27.36zm3.56-11.28c2.28 0 4.12 1.84 4.12 4.12s-1.84 4.12-4.12 4.12-4.12-1.84-4.12-4.12 1.84-4.12 4.12-4.12zM32.88 27.36h6.84v3.18h.1c.95-1.8 3.28-3.7 6.76-3.7 7.24 0 8.58 4.77 8.58 10.97v12.83h-7.12v-11.37c0-2.71-.05-6.2-3.78-6.2-3.78 0-4.36 2.95-4.36 6v11.57h-7.12V27.36z" fill="#fff"/>
  </g>
</svg> 